<mxfile host="app.diagrams.net" modified="2024-05-30T03:23:56.335Z" agent="Mozilla/5.0 (Macintosh; Intel Mac OS X 10_15_7) AppleWebKit/537.36 (KHTML, like Gecko) Chrome/125.0.0.0 Safari/537.36" etag="YlfMLwgfsy6MIFAyuw_5" version="24.4.9" type="github">
  <diagram name="第 1 页" id="XwqhoAj4zdILaTijydmR">
    <mxGraphModel dx="1366" dy="725" grid="1" gridSize="10" guides="1" tooltips="1" connect="1" arrows="1" fold="1" page="1" pageScale="1" pageWidth="827" pageHeight="1169" math="0" shadow="0">
      <root>
        <mxCell id="0" />
        <mxCell id="1" parent="0" />
        <mxCell id="ksjcqQBeI4k8iS_jIKSi-8" style="edgeStyle=orthogonalEdgeStyle;rounded=0;orthogonalLoop=1;jettySize=auto;html=1;" edge="1" parent="1" source="FDcF8GT7Wo1PujR3um74-1" target="ksjcqQBeI4k8iS_jIKSi-2">
          <mxGeometry relative="1" as="geometry" />
        </mxCell>
        <mxCell id="FDcF8GT7Wo1PujR3um74-1" value="command" style="rounded=1;whiteSpace=wrap;html=1;" parent="1" vertex="1">
          <mxGeometry x="210" y="340" width="120" height="60" as="geometry" />
        </mxCell>
        <mxCell id="FDcF8GT7Wo1PujR3um74-2" value="" style="endArrow=none;html=1;rounded=0;" parent="1" edge="1">
          <mxGeometry width="50" height="50" relative="1" as="geometry">
            <mxPoint x="130" y="440" as="sourcePoint" />
            <mxPoint x="410" y="440" as="targetPoint" />
          </mxGeometry>
        </mxCell>
        <mxCell id="FDcF8GT7Wo1PujR3um74-3" value="user" style="text;html=1;align=center;verticalAlign=middle;whiteSpace=wrap;rounded=0;" parent="1" vertex="1">
          <mxGeometry x="120" y="400" width="60" height="30" as="geometry" />
        </mxCell>
        <mxCell id="ksjcqQBeI4k8iS_jIKSi-1" value="" style="endArrow=none;html=1;rounded=0;" edge="1" parent="1" source="ksjcqQBeI4k8iS_jIKSi-3">
          <mxGeometry width="50" height="50" relative="1" as="geometry">
            <mxPoint x="130" y="440" as="sourcePoint" />
            <mxPoint x="740" y="440" as="targetPoint" />
          </mxGeometry>
        </mxCell>
        <mxCell id="FDcF8GT7Wo1PujR3um74-4" value="kernel" style="text;html=1;align=center;verticalAlign=middle;whiteSpace=wrap;rounded=0;" parent="1" vertex="1">
          <mxGeometry x="120" y="460" width="60" height="30" as="geometry" />
        </mxCell>
        <mxCell id="ksjcqQBeI4k8iS_jIKSi-9" style="edgeStyle=orthogonalEdgeStyle;rounded=0;orthogonalLoop=1;jettySize=auto;html=1;" edge="1" parent="1" source="ksjcqQBeI4k8iS_jIKSi-2" target="ksjcqQBeI4k8iS_jIKSi-3">
          <mxGeometry relative="1" as="geometry" />
        </mxCell>
        <mxCell id="ksjcqQBeI4k8iS_jIKSi-10" style="edgeStyle=orthogonalEdgeStyle;rounded=0;orthogonalLoop=1;jettySize=auto;html=1;" edge="1" parent="1" source="ksjcqQBeI4k8iS_jIKSi-2" target="ksjcqQBeI4k8iS_jIKSi-5">
          <mxGeometry relative="1" as="geometry" />
        </mxCell>
        <mxCell id="ksjcqQBeI4k8iS_jIKSi-2" value="daemon thread&lt;div&gt;systemd service&lt;/div&gt;" style="rounded=1;whiteSpace=wrap;html=1;" vertex="1" parent="1">
          <mxGeometry x="490" y="300" width="120" height="60" as="geometry" />
        </mxCell>
        <mxCell id="ksjcqQBeI4k8iS_jIKSi-4" value="" style="endArrow=none;html=1;rounded=0;" edge="1" parent="1" target="ksjcqQBeI4k8iS_jIKSi-3">
          <mxGeometry width="50" height="50" relative="1" as="geometry">
            <mxPoint x="130" y="440" as="sourcePoint" />
            <mxPoint x="740" y="440" as="targetPoint" />
          </mxGeometry>
        </mxCell>
        <mxCell id="ksjcqQBeI4k8iS_jIKSi-11" style="edgeStyle=orthogonalEdgeStyle;rounded=0;orthogonalLoop=1;jettySize=auto;html=1;entryX=1;entryY=0.5;entryDx=0;entryDy=0;" edge="1" parent="1" source="ksjcqQBeI4k8iS_jIKSi-3" target="ksjcqQBeI4k8iS_jIKSi-5">
          <mxGeometry relative="1" as="geometry" />
        </mxCell>
        <mxCell id="ksjcqQBeI4k8iS_jIKSi-3" value="eBPF map" style="rounded=1;whiteSpace=wrap;html=1;" vertex="1" parent="1">
          <mxGeometry x="590" y="410" width="120" height="60" as="geometry" />
        </mxCell>
        <mxCell id="ksjcqQBeI4k8iS_jIKSi-5" value="eBPF.o" style="rounded=1;whiteSpace=wrap;html=1;fillColor=#ffe6cc;strokeColor=#d79b00;" vertex="1" parent="1">
          <mxGeometry x="490" y="540" width="120" height="60" as="geometry" />
        </mxCell>
        <mxCell id="ksjcqQBeI4k8iS_jIKSi-6" value="" style="endArrow=classic;html=1;rounded=0;" edge="1" parent="1">
          <mxGeometry width="50" height="50" relative="1" as="geometry">
            <mxPoint x="240" y="270" as="sourcePoint" />
            <mxPoint x="240" y="330" as="targetPoint" />
          </mxGeometry>
        </mxCell>
        <mxCell id="ksjcqQBeI4k8iS_jIKSi-7" value="var&lt;div&gt;value&lt;/div&gt;" style="text;html=1;align=left;verticalAlign=middle;whiteSpace=wrap;rounded=0;" vertex="1" parent="1">
          <mxGeometry x="180" y="270" width="60" height="30" as="geometry" />
        </mxCell>
        <mxCell id="ksjcqQBeI4k8iS_jIKSi-12" value="new defined&lt;div&gt;sysctl param&lt;/div&gt;" style="ellipse;whiteSpace=wrap;html=1;fillColor=#ffe6cc;strokeColor=#d79b00;" vertex="1" parent="1">
          <mxGeometry x="370" y="400" width="120" height="80" as="geometry" />
        </mxCell>
        <mxCell id="ksjcqQBeI4k8iS_jIKSi-13" value="" style="endArrow=none;dashed=1;html=1;dashPattern=1 3;strokeWidth=2;rounded=0;" edge="1" parent="1" source="ksjcqQBeI4k8iS_jIKSi-12" target="ksjcqQBeI4k8iS_jIKSi-2">
          <mxGeometry width="50" height="50" relative="1" as="geometry">
            <mxPoint x="390" y="580" as="sourcePoint" />
            <mxPoint x="440" y="530" as="targetPoint" />
          </mxGeometry>
        </mxCell>
        <mxCell id="ksjcqQBeI4k8iS_jIKSi-14" value="" style="endArrow=none;dashed=1;html=1;dashPattern=1 3;strokeWidth=2;rounded=0;" edge="1" parent="1" source="ksjcqQBeI4k8iS_jIKSi-5" target="ksjcqQBeI4k8iS_jIKSi-12">
          <mxGeometry width="50" height="50" relative="1" as="geometry">
            <mxPoint x="438" y="548" as="sourcePoint" />
            <mxPoint x="490" y="500" as="targetPoint" />
          </mxGeometry>
        </mxCell>
        <mxCell id="ksjcqQBeI4k8iS_jIKSi-15" value="1" style="text;html=1;align=left;verticalAlign=middle;whiteSpace=wrap;rounded=0;" vertex="1" parent="1">
          <mxGeometry x="560" y="260" width="20" height="30" as="geometry" />
        </mxCell>
        <mxCell id="ksjcqQBeI4k8iS_jIKSi-16" value="2" style="text;html=1;align=left;verticalAlign=middle;whiteSpace=wrap;rounded=0;" vertex="1" parent="1">
          <mxGeometry x="350" y="330" width="20" height="30" as="geometry" />
        </mxCell>
        <mxCell id="ksjcqQBeI4k8iS_jIKSi-17" value="3" style="text;html=1;align=left;verticalAlign=middle;whiteSpace=wrap;rounded=0;" vertex="1" parent="1">
          <mxGeometry x="670" y="370" width="20" height="30" as="geometry" />
        </mxCell>
        <mxCell id="ksjcqQBeI4k8iS_jIKSi-18" value="4" style="text;html=1;align=left;verticalAlign=middle;whiteSpace=wrap;rounded=0;" vertex="1" parent="1">
          <mxGeometry x="480" y="400" width="20" height="30" as="geometry" />
        </mxCell>
      </root>
    </mxGraphModel>
  </diagram>
</mxfile>
